<?xml version="1.0" encoding="UTF-8" standalone="no"?>
<!DOCTYPE svg PUBLIC "-//W3C//DTD SVG 1.1//EN" "http://www.w3.org/Graphics/SVG/1.1/DTD/svg11.dtd">
<svg width="100%" height="100%" viewBox="0 0 1024 1024" version="1.1" xmlns="http://www.w3.org/2000/svg" xmlns:xlink="http://www.w3.org/1999/xlink" xml:space="preserve" xmlns:serif="http://www.serif.com/" style="fill-rule:evenodd;clip-rule:evenodd;stroke-linejoin:round;stroke-miterlimit:2;">
    <g>
        <g transform="matrix(1.04748,0,0,1.03724,-48.6244,-38.1378)">
            <rect x="46.42" y="36.768" width="977.58" height="987.232" style="fill:rgb(10,50,40);"/>
        </g>
        <g>
            <g transform="matrix(1.56784,0,0,1.56784,-100.237,-136.613)">
                <path d="M542.993,387.779C544.529,387.587 546.065,387.443 547.601,387.347C549.137,387.251 550.673,387.203 552.209,387.203L605.489,387.203C613.361,387.203 619.313,388.931 623.345,392.387C627.377,395.843 629.969,399.875 631.121,404.483C632.273,409.091 632.225,413.699 630.977,418.307C629.729,422.915 627.761,426.467 625.073,428.963C620.849,433.187 614.321,435.299 605.489,435.299L552.209,435.299L552.209,463.523L612.401,463.523C620.465,463.523 626.849,465.491 631.553,469.427C636.257,473.363 638.609,479.651 638.609,488.291C638.609,496.931 636.257,503.171 631.553,507.011C626.849,510.851 620.465,512.771 612.401,512.771L528.305,512.771C519.089,512.771 512.417,510.035 508.289,504.563C504.161,499.091 502.097,491.651 502.097,482.243L502.097,436.739C502.097,430.403 503.153,424.403 505.265,418.739C507.377,413.075 510.257,408.035 513.905,403.619C517.553,399.203 521.873,395.603 526.865,392.819C531.857,390.035 537.233,388.355 542.993,387.779Z" style="fill:rgb(210,250,240);"/>
            </g>
            <g transform="matrix(1.56784,0,0,1.56784,-100.237,-136.613)">
                <path d="M502.097,342.851C502.097,333.059 504.305,325.379 508.721,319.811C513.329,314.627 519.857,312.035 528.305,312.035L611.249,312.035C614.705,312.035 618.161,312.467 621.617,313.331C625.073,314.195 628.049,315.875 630.545,318.371C635.153,322.403 637.457,328.451 637.457,336.515C637.457,344.771 635.153,350.915 630.545,354.947C626.321,359.171 619.889,361.283 611.249,361.283L552.209,361.283L552.209,373.667C539.345,373.859 528.737,377.507 520.385,384.611C512.033,391.715 505.937,400.451 502.097,410.819L502.097,342.851Z" style="fill:rgb(210,250,240);"/>
            </g>
            <g transform="matrix(1.56784,0,0,1.56784,-100.237,-136.613)">
                <path d="M542.993,387.779C544.529,387.587 546.065,387.443 547.601,387.347C549.137,387.251 550.673,387.203 552.209,387.203L605.489,387.203C613.361,387.203 619.313,388.931 623.345,392.387C627.377,395.843 629.969,399.875 631.121,404.483C632.273,409.091 632.225,413.699 630.977,418.307C629.729,422.915 627.761,426.467 625.073,428.963C620.849,433.187 614.321,435.299 605.489,435.299L552.209,435.299L552.209,463.523L612.401,463.523C620.465,463.523 626.849,465.491 631.553,469.427C636.257,473.363 638.609,479.651 638.609,488.291C638.609,496.931 636.257,503.171 631.553,507.011C626.849,510.851 620.465,512.771 612.401,512.771L528.305,512.771C519.089,512.771 512.417,510.035 508.289,504.563C504.161,499.091 502.097,491.651 502.097,482.243L502.097,436.739C502.097,430.403 503.153,424.403 505.265,418.739C507.377,413.075 510.257,408.035 513.905,403.619C517.553,399.203 521.873,395.603 526.865,392.819C531.857,390.035 537.233,388.355 542.993,387.779Z" style="fill:none;"/>
            </g>
            <g transform="matrix(1.56784,0,0,1.56784,-100.237,-136.613)">
                <path d="M502.097,342.851C502.097,333.059 504.305,325.379 508.721,319.811C513.329,314.627 519.857,312.035 528.305,312.035L611.249,312.035C614.705,312.035 618.161,312.467 621.617,313.331C625.073,314.195 628.049,315.875 630.545,318.371C635.153,322.403 637.457,328.451 637.457,336.515C637.457,344.771 635.153,350.915 630.545,354.947C626.321,359.171 619.889,361.283 611.249,361.283L552.209,361.283L552.209,373.667C539.345,373.859 528.737,377.507 520.385,384.611C512.033,391.715 505.937,400.451 502.097,410.819L502.097,342.851Z" style="fill:none;"/>
            </g>
            <g transform="matrix(1.56784,0,0,1.56784,-100.237,-136.613)">
                <path d="M323.249,342.851C323.249,333.059 325.265,325.475 329.297,320.099C333.329,314.723 339.665,312.035 348.305,312.035C357.137,312.035 363.521,314.819 367.457,320.387C371.393,325.955 373.361,333.443 373.361,342.851L373.361,420.323C373.361,436.451 375.665,448.355 380.273,456.035C382.385,459.683 385.937,462.899 390.929,465.683C395.921,468.467 403.505,469.379 413.681,468.419C409.841,477.251 404.465,484.739 397.553,490.883C390.641,497.027 382.097,500.099 371.921,500.099C363.089,500.099 354.785,497.459 347.009,492.179C339.233,486.899 333.713,479.267 330.449,469.283C327.761,461.795 325.889,453.923 324.833,445.667C323.777,437.411 323.249,428.963 323.249,420.323L323.249,342.851Z" style="fill:rgb(210,250,240);"/>
            </g>
            <g transform="matrix(1.56784,0,0,1.56784,-100.237,-136.613)">
                <path d="M434.705,420.323L434.705,342.851C434.705,333.443 436.721,325.955 440.753,320.387C444.785,314.819 451.121,312.035 459.761,312.035C468.593,312.035 474.977,314.819 478.913,320.387C482.849,325.955 484.817,333.443 484.817,342.851L484.817,420.323C484.817,434.147 483.521,446.963 480.929,458.771C478.337,470.579 473.921,480.707 467.681,489.155C461.441,497.603 453.185,504.227 442.913,509.027C432.641,513.827 419.825,516.227 404.465,516.227C396.401,516.227 388.817,515.507 381.713,514.067C374.609,512.627 368.561,510.851 363.569,508.739C363.185,508.739 362.801,508.547 362.417,508.163C374.321,507.587 384.401,505.667 392.657,502.403C400.913,499.139 407.729,495.011 413.105,490.019C418.481,485.027 422.609,479.459 425.489,473.315C428.369,467.171 430.481,460.931 431.825,454.595C433.169,448.259 433.985,442.115 434.273,436.163C434.561,430.211 434.705,424.931 434.705,420.323Z" style="fill:rgb(210,250,240);"/>
            </g>
            <g transform="matrix(1.56784,0,0,1.56784,-100.237,-136.613)">
                <path d="M323.249,342.851C323.249,333.059 325.265,325.475 329.297,320.099C333.329,314.723 339.665,312.035 348.305,312.035C357.137,312.035 363.521,314.819 367.457,320.387C371.393,325.955 373.361,333.443 373.361,342.851L373.361,420.323C373.361,436.451 375.665,448.355 380.273,456.035C382.385,459.683 385.937,462.899 390.929,465.683C395.921,468.467 403.505,469.379 413.681,468.419C409.841,477.251 404.465,484.739 397.553,490.883C390.641,497.027 382.097,500.099 371.921,500.099C363.089,500.099 354.785,497.459 347.009,492.179C339.233,486.899 333.713,479.267 330.449,469.283C327.761,461.795 325.889,453.923 324.833,445.667C323.777,437.411 323.249,428.963 323.249,420.323L323.249,342.851Z" style="fill:none;"/>
            </g>
            <g transform="matrix(1.56784,0,0,1.56784,-100.237,-136.613)">
                <path d="M434.705,420.323L434.705,342.851C434.705,333.443 436.721,325.955 440.753,320.387C444.785,314.819 451.121,312.035 459.761,312.035C468.593,312.035 474.977,314.819 478.913,320.387C482.849,325.955 484.817,333.443 484.817,342.851L484.817,420.323C484.817,434.147 483.521,446.963 480.929,458.771C478.337,470.579 473.921,480.707 467.681,489.155C461.441,497.603 453.185,504.227 442.913,509.027C432.641,513.827 419.825,516.227 404.465,516.227C396.401,516.227 388.817,515.507 381.713,514.067C374.609,512.627 368.561,510.851 363.569,508.739C363.185,508.739 362.801,508.547 362.417,508.163C374.321,507.587 384.401,505.667 392.657,502.403C400.913,499.139 407.729,495.011 413.105,490.019C418.481,485.027 422.609,479.459 425.489,473.315C428.369,467.171 430.481,460.931 431.825,454.595C433.169,448.259 433.985,442.115 434.273,436.163C434.561,430.211 434.705,424.931 434.705,420.323Z" style="fill:none;"/>
            </g>
            <g transform="matrix(1.56784,0,0,1.56784,-100.237,-136.613)">
                <path d="M192.785,386.051L255.857,386.051L255.857,342.684C255.857,338.442 256.289,334.442 257.153,330.683C258.017,326.924 259.409,323.648 261.329,320.855C263.249,318.059 265.793,315.842 268.961,314.204C272.129,312.566 276.113,311.747 280.913,311.747C285.713,311.747 289.697,312.563 292.865,314.195C296.033,315.827 298.577,318.035 300.497,320.819C302.417,323.603 303.809,326.867 304.673,330.611C305.537,334.355 305.969,338.339 305.969,342.563L305.969,386.339C305.969,393.827 304.673,400.547 302.081,406.499C299.489,412.451 295.985,417.587 291.569,421.907C287.153,426.227 281.873,429.539 275.729,431.843C269.585,434.147 262.961,435.299 255.857,435.299L192.497,435.299L192.497,481.955C192.497,486.179 192.065,490.163 191.201,493.907C190.337,497.651 188.945,500.915 187.025,503.699C185.105,506.483 182.561,508.691 179.393,510.323C176.225,511.955 172.241,512.771 167.441,512.771C162.641,512.771 158.657,511.956 155.489,510.327C152.321,508.698 149.777,506.496 147.857,503.721C145.937,500.943 144.545,497.687 143.681,493.952C142.817,490.214 142.385,486.239 142.385,482.027L142.385,434.898C142.385,427.428 143.681,420.725 146.273,414.788C148.865,408.848 152.417,403.724 156.929,399.416C161.441,395.105 166.769,391.8 172.913,389.502C179.057,387.201 185.681,386.051 192.785,386.051Z" style="fill:rgb(210,250,240);"/>
            </g>
            <g transform="matrix(1.56784,0,0,1.56784,-100.237,-136.613)">
                <path d="M255.857,447.683C269.105,447.875 279.857,444.624 288.113,437.931C296.369,431.235 302.321,422.627 305.969,412.106L305.969,481.707C305.969,485.925 305.537,489.905 304.673,493.646C303.809,497.384 302.417,500.643 300.497,503.424C298.577,506.202 296.033,508.407 292.865,510.039C289.697,511.668 285.713,512.483 280.913,512.483C274.769,512.483 269.681,511.043 265.649,508.163L262.193,504.707C257.969,499.907 255.857,492.227 255.857,481.667L255.857,447.683Z" style="fill:rgb(210,250,240);"/>
            </g>
            <g transform="matrix(1.56784,0,0,1.56784,-100.237,-136.613)">
                <path d="M148.721,319.824C152.945,314.631 159.185,312.035 167.441,312.035C173.585,312.035 178.673,313.475 182.705,316.355L186.161,319.811C190.385,325.187 192.497,332.867 192.497,342.851L192.497,373.379C179.249,373.187 168.545,376.512 160.385,383.355C152.225,390.198 146.225,398.922 142.385,409.527L142.385,342.896C142.385,333.089 144.497,325.398 148.721,319.824Z" style="fill:rgb(210,250,240);"/>
            </g>
            <g transform="matrix(1.56784,0,0,1.56784,-100.237,-136.613)">
                <path d="M192.785,386.051L255.857,386.051L255.857,342.684C255.857,338.442 256.289,334.442 257.153,330.683C258.017,326.924 259.409,323.648 261.329,320.855C263.249,318.059 265.793,315.842 268.961,314.204C272.129,312.566 276.113,311.747 280.913,311.747C285.713,311.747 289.697,312.563 292.865,314.195C296.033,315.827 298.577,318.035 300.497,320.819C302.417,323.603 303.809,326.867 304.673,330.611C305.537,334.355 305.969,338.339 305.969,342.563L305.969,386.339C305.969,393.827 304.673,400.547 302.081,406.499C299.489,412.451 295.985,417.587 291.569,421.907C287.153,426.227 281.873,429.539 275.729,431.843C269.585,434.147 262.961,435.299 255.857,435.299L192.497,435.299L192.497,481.955C192.497,486.179 192.065,490.163 191.201,493.907C190.337,497.651 188.945,500.915 187.025,503.699C185.105,506.483 182.561,508.691 179.393,510.323C176.225,511.955 172.241,512.771 167.441,512.771C162.641,512.771 158.657,511.956 155.489,510.327C152.321,508.698 149.777,506.496 147.857,503.721C145.937,500.943 144.545,497.687 143.681,493.952C142.817,490.214 142.385,486.239 142.385,482.027L142.385,434.898C142.385,427.428 143.681,420.725 146.273,414.788C148.865,408.848 152.417,403.724 156.929,399.416C161.441,395.105 166.769,391.8 172.913,389.502C179.057,387.201 185.681,386.051 192.785,386.051Z" style="fill:none;"/>
            </g>
            <g transform="matrix(1.56784,0,0,1.56784,-100.237,-136.613)">
                <path d="M255.857,447.683C269.105,447.875 279.857,444.624 288.113,437.931C296.369,431.235 302.321,422.627 305.969,412.106L305.969,481.707C305.969,485.925 305.537,489.905 304.673,493.646C303.809,497.384 302.417,500.643 300.497,503.424C298.577,506.202 296.033,508.407 292.865,510.039C289.697,511.668 285.713,512.483 280.913,512.483C274.769,512.483 269.681,511.043 265.649,508.163L262.193,504.707C257.969,499.907 255.857,492.227 255.857,481.667L255.857,447.683Z" style="fill:none;"/>
            </g>
            <g transform="matrix(1.56784,0,0,1.56784,-100.237,-136.613)">
                <path d="M148.721,319.824C152.945,314.631 159.185,312.035 167.441,312.035C173.585,312.035 178.673,313.475 182.705,316.355L186.161,319.811C190.385,325.187 192.497,332.867 192.497,342.851L192.497,373.379C179.249,373.187 168.545,376.512 160.385,383.355C152.225,390.198 146.225,398.922 142.385,409.527L142.385,342.896C142.385,333.089 144.497,325.398 148.721,319.824Z" style="fill:none;"/>
            </g>
        </g>
    </g>
</svg>
