<?xml version="1.0" encoding="UTF-8" standalone="no"?>
<!DOCTYPE svg PUBLIC "-//W3C//DTD SVG 1.1//EN" "http://www.w3.org/Graphics/SVG/1.1/DTD/svg11.dtd">
<svg width="100%" height="100%" viewBox="0 0 512 106" version="1.1" xmlns="http://www.w3.org/2000/svg" xmlns:xlink="http://www.w3.org/1999/xlink" xml:space="preserve" xmlns:serif="http://www.serif.com/" style="fill-rule:evenodd;clip-rule:evenodd;stroke-linejoin:round;stroke-miterlimit:2;">
    <g transform="matrix(1,0,0,1,-256,-459.754)">
        <g>
            <g>
                <g transform="matrix(0.515433,0,0,0.515433,438.827,299.069)">
                    <path d="M542.993,387.779C544.529,387.587 546.065,387.443 547.601,387.347C549.137,387.251 550.673,387.203 552.209,387.203L605.489,387.203C613.361,387.203 619.313,388.931 623.345,392.387C627.377,395.843 629.969,399.875 631.121,404.483C632.273,409.091 632.225,413.699 630.977,418.307C629.729,422.915 627.761,426.467 625.073,428.963C620.849,433.187 614.321,435.299 605.489,435.299L552.209,435.299L552.209,463.523L612.401,463.523C620.465,463.523 626.849,465.491 631.553,469.427C636.257,473.363 638.609,479.651 638.609,488.291C638.609,496.931 636.257,503.171 631.553,507.011C626.849,510.851 620.465,512.771 612.401,512.771L528.305,512.771C519.089,512.771 512.417,510.035 508.289,504.563C504.161,499.091 502.097,491.651 502.097,482.243L502.097,436.739C502.097,430.403 503.153,424.403 505.265,418.739C507.377,413.075 510.257,408.035 513.905,403.619C517.553,399.203 521.873,395.603 526.865,392.819C531.857,390.035 537.233,388.355 542.993,387.779Z" style="fill:rgb(10,50,40);"/>
                </g>
                <g transform="matrix(0.515433,0,0,0.515433,438.827,299.069)">
                    <path d="M502.097,342.851C502.097,333.059 504.305,325.379 508.721,319.811C513.329,314.627 519.857,312.035 528.305,312.035L611.249,312.035C614.705,312.035 618.161,312.467 621.617,313.331C625.073,314.195 628.049,315.875 630.545,318.371C635.153,322.403 637.457,328.451 637.457,336.515C637.457,344.771 635.153,350.915 630.545,354.947C626.321,359.171 619.889,361.283 611.249,361.283L552.209,361.283L552.209,373.667C539.345,373.859 528.737,377.507 520.385,384.611C512.033,391.715 505.937,400.451 502.097,410.819L502.097,342.851Z" style="fill:rgb(10,50,40);"/>
                </g>
                <g transform="matrix(0.515433,0,0,0.515433,438.827,299.069)">
                    <path d="M542.993,387.779C544.529,387.587 546.065,387.443 547.601,387.347C549.137,387.251 550.673,387.203 552.209,387.203L605.489,387.203C613.361,387.203 619.313,388.931 623.345,392.387C627.377,395.843 629.969,399.875 631.121,404.483C632.273,409.091 632.225,413.699 630.977,418.307C629.729,422.915 627.761,426.467 625.073,428.963C620.849,433.187 614.321,435.299 605.489,435.299L552.209,435.299L552.209,463.523L612.401,463.523C620.465,463.523 626.849,465.491 631.553,469.427C636.257,473.363 638.609,479.651 638.609,488.291C638.609,496.931 636.257,503.171 631.553,507.011C626.849,510.851 620.465,512.771 612.401,512.771L528.305,512.771C519.089,512.771 512.417,510.035 508.289,504.563C504.161,499.091 502.097,491.651 502.097,482.243L502.097,436.739C502.097,430.403 503.153,424.403 505.265,418.739C507.377,413.075 510.257,408.035 513.905,403.619C517.553,399.203 521.873,395.603 526.865,392.819C531.857,390.035 537.233,388.355 542.993,387.779Z" style="fill:none;"/>
                </g>
                <g transform="matrix(0.515433,0,0,0.515433,438.827,299.069)">
                    <path d="M502.097,342.851C502.097,333.059 504.305,325.379 508.721,319.811C513.329,314.627 519.857,312.035 528.305,312.035L611.249,312.035C614.705,312.035 618.161,312.467 621.617,313.331C625.073,314.195 628.049,315.875 630.545,318.371C635.153,322.403 637.457,328.451 637.457,336.515C637.457,344.771 635.153,350.915 630.545,354.947C626.321,359.171 619.889,361.283 611.249,361.283L552.209,361.283L552.209,373.667C539.345,373.859 528.737,377.507 520.385,384.611C512.033,391.715 505.937,400.451 502.097,410.819L502.097,342.851Z" style="fill:none;"/>
                </g>
                <g transform="matrix(0.515433,0,0,0.515433,438.827,299.069)">
                    <path d="M323.249,342.851C323.249,333.059 325.265,325.475 329.297,320.099C333.329,314.723 339.665,312.035 348.305,312.035C357.137,312.035 363.521,314.819 367.457,320.387C371.393,325.955 373.361,333.443 373.361,342.851L373.361,420.323C373.361,436.451 375.665,448.355 380.273,456.035C382.385,459.683 385.937,462.899 390.929,465.683C395.921,468.467 403.505,469.379 413.681,468.419C409.841,477.251 404.465,484.739 397.553,490.883C390.641,497.027 382.097,500.099 371.921,500.099C363.089,500.099 354.785,497.459 347.009,492.179C339.233,486.899 333.713,479.267 330.449,469.283C327.761,461.795 325.889,453.923 324.833,445.667C323.777,437.411 323.249,428.963 323.249,420.323L323.249,342.851Z" style="fill:rgb(10,50,40);"/>
                </g>
                <g transform="matrix(0.515433,0,0,0.515433,438.827,299.069)">
                    <path d="M434.705,420.323L434.705,342.851C434.705,333.443 436.721,325.955 440.753,320.387C444.785,314.819 451.121,312.035 459.761,312.035C468.593,312.035 474.977,314.819 478.913,320.387C482.849,325.955 484.817,333.443 484.817,342.851L484.817,420.323C484.817,434.147 483.521,446.963 480.929,458.771C478.337,470.579 473.921,480.707 467.681,489.155C461.441,497.603 453.185,504.227 442.913,509.027C432.641,513.827 419.825,516.227 404.465,516.227C396.401,516.227 388.817,515.507 381.713,514.067C374.609,512.627 368.561,510.851 363.569,508.739C363.185,508.739 362.801,508.547 362.417,508.163C374.321,507.587 384.401,505.667 392.657,502.403C400.913,499.139 407.729,495.011 413.105,490.019C418.481,485.027 422.609,479.459 425.489,473.315C428.369,467.171 430.481,460.931 431.825,454.595C433.169,448.259 433.985,442.115 434.273,436.163C434.561,430.211 434.705,424.931 434.705,420.323Z" style="fill:rgb(10,50,40);"/>
                </g>
                <g transform="matrix(0.515433,0,0,0.515433,438.827,299.069)">
                    <path d="M323.249,342.851C323.249,333.059 325.265,325.475 329.297,320.099C333.329,314.723 339.665,312.035 348.305,312.035C357.137,312.035 363.521,314.819 367.457,320.387C371.393,325.955 373.361,333.443 373.361,342.851L373.361,420.323C373.361,436.451 375.665,448.355 380.273,456.035C382.385,459.683 385.937,462.899 390.929,465.683C395.921,468.467 403.505,469.379 413.681,468.419C409.841,477.251 404.465,484.739 397.553,490.883C390.641,497.027 382.097,500.099 371.921,500.099C363.089,500.099 354.785,497.459 347.009,492.179C339.233,486.899 333.713,479.267 330.449,469.283C327.761,461.795 325.889,453.923 324.833,445.667C323.777,437.411 323.249,428.963 323.249,420.323L323.249,342.851Z" style="fill:none;"/>
                </g>
                <g transform="matrix(0.515433,0,0,0.515433,438.827,299.069)">
                    <path d="M434.705,420.323L434.705,342.851C434.705,333.443 436.721,325.955 440.753,320.387C444.785,314.819 451.121,312.035 459.761,312.035C468.593,312.035 474.977,314.819 478.913,320.387C482.849,325.955 484.817,333.443 484.817,342.851L484.817,420.323C484.817,434.147 483.521,446.963 480.929,458.771C478.337,470.579 473.921,480.707 467.681,489.155C461.441,497.603 453.185,504.227 442.913,509.027C432.641,513.827 419.825,516.227 404.465,516.227C396.401,516.227 388.817,515.507 381.713,514.067C374.609,512.627 368.561,510.851 363.569,508.739C363.185,508.739 362.801,508.547 362.417,508.163C374.321,507.587 384.401,505.667 392.657,502.403C400.913,499.139 407.729,495.011 413.105,490.019C418.481,485.027 422.609,479.459 425.489,473.315C428.369,467.171 430.481,460.931 431.825,454.595C433.169,448.259 433.985,442.115 434.273,436.163C434.561,430.211 434.705,424.931 434.705,420.323Z" style="fill:none;"/>
                </g>
                <g transform="matrix(0.515433,0,0,0.515433,438.827,299.069)">
                    <path d="M192.785,386.051L255.857,386.051L255.857,342.684C255.857,338.442 256.289,334.442 257.153,330.683C258.017,326.924 259.409,323.648 261.329,320.855C263.249,318.059 265.793,315.842 268.961,314.204C272.129,312.566 276.113,311.747 280.913,311.747C285.713,311.747 289.697,312.563 292.865,314.195C296.033,315.827 298.577,318.035 300.497,320.819C302.417,323.603 303.809,326.867 304.673,330.611C305.537,334.355 305.969,338.339 305.969,342.563L305.969,386.339C305.969,393.827 304.673,400.547 302.081,406.499C299.489,412.451 295.985,417.587 291.569,421.907C287.153,426.227 281.873,429.539 275.729,431.843C269.585,434.147 262.961,435.299 255.857,435.299L192.497,435.299L192.497,481.955C192.497,486.179 192.065,490.163 191.201,493.907C190.337,497.651 188.945,500.915 187.025,503.699C185.105,506.483 182.561,508.691 179.393,510.323C176.225,511.955 172.241,512.771 167.441,512.771C162.641,512.771 158.657,511.956 155.489,510.327C152.321,508.698 149.777,506.496 147.857,503.721C145.937,500.943 144.545,497.687 143.681,493.952C142.817,490.214 142.385,486.239 142.385,482.027L142.385,434.898C142.385,427.428 143.681,420.725 146.273,414.788C148.865,408.848 152.417,403.724 156.929,399.416C161.441,395.105 166.769,391.8 172.913,389.502C179.057,387.201 185.681,386.051 192.785,386.051Z" style="fill:rgb(10,50,40);"/>
                </g>
                <g transform="matrix(0.515433,0,0,0.515433,438.827,299.069)">
                    <path d="M255.857,447.683C269.105,447.875 279.857,444.624 288.113,437.931C296.369,431.235 302.321,422.627 305.969,412.106L305.969,481.707C305.969,485.925 305.537,489.905 304.673,493.646C303.809,497.384 302.417,500.643 300.497,503.424C298.577,506.202 296.033,508.407 292.865,510.039C289.697,511.668 285.713,512.483 280.913,512.483C274.769,512.483 269.681,511.043 265.649,508.163L262.193,504.707C257.969,499.907 255.857,492.227 255.857,481.667L255.857,447.683Z" style="fill:rgb(10,50,40);"/>
                </g>
                <g transform="matrix(0.515433,0,0,0.515433,438.827,299.069)">
                    <path d="M148.721,319.824C152.945,314.631 159.185,312.035 167.441,312.035C173.585,312.035 178.673,313.475 182.705,316.355L186.161,319.811C190.385,325.187 192.497,332.867 192.497,342.851L192.497,373.379C179.249,373.187 168.545,376.512 160.385,383.355C152.225,390.198 146.225,398.922 142.385,409.527L142.385,342.896C142.385,333.089 144.497,325.398 148.721,319.824Z" style="fill:rgb(10,50,40);"/>
                </g>
                <g transform="matrix(0.515433,0,0,0.515433,438.827,299.069)">
                    <path d="M192.785,386.051L255.857,386.051L255.857,342.684C255.857,338.442 256.289,334.442 257.153,330.683C258.017,326.924 259.409,323.648 261.329,320.855C263.249,318.059 265.793,315.842 268.961,314.204C272.129,312.566 276.113,311.747 280.913,311.747C285.713,311.747 289.697,312.563 292.865,314.195C296.033,315.827 298.577,318.035 300.497,320.819C302.417,323.603 303.809,326.867 304.673,330.611C305.537,334.355 305.969,338.339 305.969,342.563L305.969,386.339C305.969,393.827 304.673,400.547 302.081,406.499C299.489,412.451 295.985,417.587 291.569,421.907C287.153,426.227 281.873,429.539 275.729,431.843C269.585,434.147 262.961,435.299 255.857,435.299L192.497,435.299L192.497,481.955C192.497,486.179 192.065,490.163 191.201,493.907C190.337,497.651 188.945,500.915 187.025,503.699C185.105,506.483 182.561,508.691 179.393,510.323C176.225,511.955 172.241,512.771 167.441,512.771C162.641,512.771 158.657,511.956 155.489,510.327C152.321,508.698 149.777,506.496 147.857,503.721C145.937,500.943 144.545,497.687 143.681,493.952C142.817,490.214 142.385,486.239 142.385,482.027L142.385,434.898C142.385,427.428 143.681,420.725 146.273,414.788C148.865,408.848 152.417,403.724 156.929,399.416C161.441,395.105 166.769,391.8 172.913,389.502C179.057,387.201 185.681,386.051 192.785,386.051Z" style="fill:none;"/>
                </g>
                <g transform="matrix(0.515433,0,0,0.515433,438.827,299.069)">
                    <path d="M255.857,447.683C269.105,447.875 279.857,444.624 288.113,437.931C296.369,431.235 302.321,422.627 305.969,412.106L305.969,481.707C305.969,485.925 305.537,489.905 304.673,493.646C303.809,497.384 302.417,500.643 300.497,503.424C298.577,506.202 296.033,508.407 292.865,510.039C289.697,511.668 285.713,512.483 280.913,512.483C274.769,512.483 269.681,511.043 265.649,508.163L262.193,504.707C257.969,499.907 255.857,492.227 255.857,481.667L255.857,447.683Z" style="fill:none;"/>
                </g>
                <g transform="matrix(0.515433,0,0,0.515433,438.827,299.069)">
                    <path d="M148.721,319.824C152.945,314.631 159.185,312.035 167.441,312.035C173.585,312.035 178.673,313.475 182.705,316.355L186.161,319.811C190.385,325.187 192.497,332.867 192.497,342.851L192.497,373.379C179.249,373.187 168.545,376.512 160.385,383.355C152.225,390.198 146.225,398.922 142.385,409.527L142.385,342.896C142.385,333.089 144.497,325.398 148.721,319.824Z" style="fill:none;"/>
                </g>
                <g transform="matrix(0.171743,0,0,0.171743,238.417,487.437)">
                    <path d="M1374.36,120.268C1379.18,118.461 1383.7,117.558 1387.91,117.558C1396.64,117.558 1404.02,121.095 1410.04,128.169C1416.06,135.244 1420.87,144.049 1424.49,154.584L1454.29,240.828C1461.21,258.89 1466.55,277.629 1470.32,297.045C1474.08,316.461 1475.66,335.651 1475.06,354.616C1474.45,363.647 1473.03,372.602 1470.77,381.482C1468.51,390.363 1464.97,398.716 1460.16,406.543C1453.84,417.38 1445.93,425.582 1436.45,431.151C1426.97,436.72 1413.8,439.505 1396.94,439.505C1390.32,439.505 1384.15,438.677 1378.43,437.021C1372.71,435.366 1367.89,432.882 1363.98,429.571C1360.07,426.26 1357.28,422.121 1355.62,417.154C1353.97,412.187 1353.74,406.392 1354.95,399.77C1356.15,393.448 1358.56,388.782 1362.17,385.772C1365.79,382.762 1369.62,380.654 1373.69,379.45C1377.75,378.246 1381.66,377.644 1385.43,377.644C1389.19,377.644 1391.97,377.494 1393.78,377.193C1400.7,375.688 1405.6,371.247 1408.45,363.872C1411.32,356.497 1414.85,346.488 1419.07,333.845L1359.46,185.289C1356.75,178.967 1354.8,172.42 1353.59,165.647C1352.39,158.874 1352.31,152.552 1353.37,146.683C1354.42,140.813 1356.6,135.545 1359.91,130.879C1363.23,126.213 1368.04,122.676 1374.36,120.268Z" style="fill:rgb(10,50,40);"/>
                </g>
                <g transform="matrix(0.171743,0,0,0.171743,238.417,487.437)">
                    <path d="M1462.87,220.961L1475.96,182.58L1485.89,154.584C1489.51,144.049 1494.4,135.168 1500.57,127.944C1506.74,120.719 1514.34,117.257 1523.37,117.558C1527.29,117.558 1531.5,118.461 1536.02,120.268C1542.34,122.676 1547.23,126.213 1550.69,130.879C1554.15,135.545 1556.33,140.813 1557.24,146.683C1558.14,152.552 1557.99,158.874 1556.79,165.647C1555.58,172.42 1553.62,178.967 1550.92,185.289L1520.21,261.599L1482.28,355.97C1483.49,345.736 1483.94,334.748 1483.64,323.008C1483.34,311.268 1482.28,299.528 1480.48,287.788C1478.67,276.048 1476.26,264.459 1473.25,253.02C1470.24,241.581 1466.78,230.894 1462.87,220.961Z" style="fill:rgb(10,50,40);"/>
                </g>
                <g transform="matrix(0.171743,0,0,0.171743,238.417,487.437)">
                    <path d="M1374.36,120.268C1379.18,118.461 1383.7,117.558 1387.91,117.558C1396.64,117.558 1404.02,121.095 1410.04,128.169C1416.06,135.244 1420.87,144.049 1424.49,154.584L1454.29,240.828C1461.21,258.89 1466.55,277.629 1470.32,297.045C1474.08,316.461 1475.66,335.651 1475.06,354.616C1474.45,363.647 1473.03,372.602 1470.77,381.482C1468.51,390.363 1464.97,398.716 1460.16,406.543C1453.84,417.38 1445.93,425.582 1436.45,431.151C1426.97,436.72 1413.8,439.505 1396.94,439.505C1390.32,439.505 1384.15,438.677 1378.43,437.021C1372.71,435.366 1367.89,432.882 1363.98,429.571C1360.07,426.26 1357.28,422.121 1355.62,417.154C1353.97,412.187 1353.74,406.392 1354.95,399.77C1356.15,393.448 1358.56,388.782 1362.17,385.772C1365.79,382.762 1369.62,380.654 1373.69,379.45C1377.75,378.246 1381.66,377.644 1385.43,377.644C1389.19,377.644 1391.97,377.494 1393.78,377.193C1400.7,375.688 1405.6,371.247 1408.45,363.872C1411.32,356.497 1414.85,346.488 1419.07,333.845L1359.46,185.289C1356.75,178.967 1354.8,172.42 1353.59,165.647C1352.39,158.874 1352.31,152.552 1353.37,146.683C1354.42,140.813 1356.6,135.545 1359.91,130.879C1363.23,126.213 1368.04,122.676 1374.36,120.268Z" style="fill:none;"/>
                </g>
                <g transform="matrix(0.171743,0,0,0.171743,238.417,487.437)">
                    <path d="M1462.87,220.961L1475.96,182.58L1485.89,154.584C1489.51,144.049 1494.4,135.168 1500.57,127.944C1506.74,120.719 1514.34,117.257 1523.37,117.558C1527.29,117.558 1531.5,118.461 1536.02,120.268C1542.34,122.676 1547.23,126.213 1550.69,130.879C1554.15,135.545 1556.33,140.813 1557.24,146.683C1558.14,152.552 1557.99,158.874 1556.79,165.647C1555.58,172.42 1553.62,178.967 1550.92,185.289L1520.21,261.599L1482.28,355.97C1483.49,345.736 1483.94,334.748 1483.64,323.008C1483.34,311.268 1482.28,299.528 1480.48,287.788C1478.67,276.048 1476.26,264.459 1473.25,253.02C1470.24,241.581 1466.78,230.894 1462.87,220.961Z" style="fill:none;"/>
                </g>
                <g transform="matrix(0.171743,0,0,0.171743,238.417,487.437)">
                    <path d="M1095.77,225.024C1095.77,208.167 1098.02,192.815 1102.54,178.967C1107.05,165.12 1113.6,153.23 1122.18,143.296C1130.76,133.362 1141.45,125.686 1154.24,120.268C1167.03,114.849 1181.86,112.14 1198.72,112.14C1211.36,112.14 1223.1,114.68 1233.94,119.76C1244.77,124.839 1253.65,132.758 1260.58,143.515L1260.58,62.838C1260.58,49.32 1263.44,38.504 1269.16,30.39C1274.88,22.277 1284.51,18.22 1298.05,18.22C1311.6,18.22 1321.23,22.272 1326.95,30.376C1332.67,38.48 1335.53,49.287 1335.53,62.795L1335.53,285.982C1335.53,299.528 1332.67,310.44 1326.95,318.718C1321.23,326.997 1311.6,331.136 1298.05,331.136C1285.41,331.136 1275.93,327.222 1269.61,319.396C1266,314.579 1263.51,307.204 1262.16,297.27C1260.8,287.337 1260.05,277.177 1259.9,266.792C1259.75,256.406 1259.82,247.15 1260.12,239.022C1260.43,230.894 1260.58,226.078 1260.58,224.573C1260.58,209.823 1256.74,197.631 1249.06,187.998C1241.39,178.365 1230.32,173.549 1215.87,173.549C1201.42,173.549 1190.29,178.387 1182.46,188.062C1174.63,197.737 1170.72,209.982 1170.72,224.799C1170.72,233.566 1172,241.2 1174.56,247.7C1177.12,254.2 1180.58,259.567 1184.94,263.8C1189.31,268.033 1194.2,271.208 1199.62,273.325C1205.04,275.441 1210.46,276.5 1215.87,276.5C1224,276.5 1231.38,274.543 1238,270.63C1239.51,280.263 1241.54,289.293 1244.1,297.722C1246.65,306.151 1249.44,312.623 1252.45,317.138C1245.53,323.159 1236.95,327.975 1226.71,331.587C1216.48,335.2 1205.64,337.006 1194.2,337.006C1182.46,337.006 1170.8,334.974 1159.21,330.91C1147.62,326.846 1137.08,320.374 1127.6,311.494C1118.12,302.614 1110.44,291.099 1104.57,276.951C1098.7,262.803 1095.77,245.494 1095.77,225.024Z" style="fill:rgb(10,50,40);"/>
                </g>
                <g transform="matrix(0.171743,0,0,0.171743,238.417,487.437)">
                    <path d="M1095.77,225.024C1095.77,208.167 1098.02,192.815 1102.54,178.967C1107.05,165.12 1113.6,153.23 1122.18,143.296C1130.76,133.362 1141.45,125.686 1154.24,120.268C1167.03,114.849 1181.86,112.14 1198.72,112.14C1211.36,112.14 1223.1,114.68 1233.94,119.76C1244.77,124.839 1253.65,132.758 1260.58,143.515L1260.58,62.838C1260.58,49.32 1263.44,38.504 1269.16,30.39C1274.88,22.277 1284.51,18.22 1298.05,18.22C1311.6,18.22 1321.23,22.272 1326.95,30.376C1332.67,38.48 1335.53,49.287 1335.53,62.795L1335.53,285.982C1335.53,299.528 1332.67,310.44 1326.95,318.718C1321.23,326.997 1311.6,331.136 1298.05,331.136C1285.41,331.136 1275.93,327.222 1269.61,319.396C1266,314.579 1263.51,307.204 1262.16,297.27C1260.8,287.337 1260.05,277.177 1259.9,266.792C1259.75,256.406 1259.82,247.15 1260.12,239.022C1260.43,230.894 1260.58,226.078 1260.58,224.573C1260.58,209.823 1256.74,197.631 1249.06,187.998C1241.39,178.365 1230.32,173.549 1215.87,173.549C1201.42,173.549 1190.29,178.387 1182.46,188.062C1174.63,197.737 1170.72,209.982 1170.72,224.799C1170.72,233.566 1172,241.2 1174.56,247.7C1177.12,254.2 1180.58,259.567 1184.94,263.8C1189.31,268.033 1194.2,271.208 1199.62,273.325C1205.04,275.441 1210.46,276.5 1215.87,276.5C1224,276.5 1231.38,274.543 1238,270.63C1239.51,280.263 1241.54,289.293 1244.1,297.722C1246.65,306.151 1249.44,312.623 1252.45,317.138C1245.53,323.159 1236.95,327.975 1226.71,331.587C1216.48,335.2 1205.64,337.006 1194.2,337.006C1182.46,337.006 1170.8,334.974 1159.21,330.91C1147.62,326.846 1137.08,320.374 1127.6,311.494C1118.12,302.614 1110.44,291.099 1104.57,276.951C1098.7,262.803 1095.77,245.494 1095.77,225.024Z" style="fill:none;"/>
                </g>
                <g transform="matrix(0.171743,0,0,0.171743,238.417,487.437)">
                    <path d="M822.585,224.573L822.585,219.832C822.585,218.176 822.735,216.596 823.036,215.091C823.638,204.555 825.52,194.395 828.681,184.612C831.841,174.828 836.432,166.174 842.452,158.648C848.473,151.123 855.923,145.102 864.804,140.587C873.684,136.071 883.994,133.814 895.734,133.814C908.377,133.814 920.117,136.974 930.954,143.296C941.791,149.618 950.37,159.25 956.692,172.194L958.498,175.807C953.079,174.302 948.112,173.549 943.597,173.549C928.245,173.549 916.73,178.215 909.054,187.547C901.378,196.878 897.54,209.221 897.54,224.573C897.54,239.925 901.529,252.267 909.506,261.599C917.483,270.931 928.847,275.597 943.597,275.597C956.541,275.597 967.378,271.156 976.108,262.276C984.837,253.396 989.202,240.828 989.202,224.573C989.202,222.767 989.127,219.004 988.977,213.284C988.826,207.565 987.923,200.942 986.267,193.417C984.612,185.891 981.752,177.989 977.688,169.711C973.624,161.433 967.754,153.832 960.078,146.908C952.402,139.985 942.468,134.19 930.277,129.524C918.085,124.858 902.959,122.375 884.897,122.074C893.627,118.461 903.41,115.903 914.247,114.398C925.084,112.892 934.867,112.14 943.597,112.14C962.863,112.14 979.946,114.924 994.847,120.493C1009.75,126.062 1022.32,133.889 1032.55,143.973C1042.79,154.058 1050.61,165.948 1056.03,179.645C1061.45,193.341 1064.16,208.317 1064.16,224.573C1064.16,241.43 1061.45,256.707 1056.03,270.404C1050.61,284.101 1042.71,295.916 1032.32,305.85C1021.94,315.783 1009.3,323.46 994.395,328.878C979.494,334.297 962.562,337.006 943.597,337.006C924.03,337.006 906.721,334.146 891.67,328.427C876.619,322.707 863.976,314.805 853.741,304.721C843.506,294.636 835.755,282.746 830.487,269.049C825.219,255.353 822.585,240.527 822.585,224.573Z" style="fill:rgb(10,50,40);"/>
                </g>
                <g transform="matrix(0.171743,0,0,0.171743,238.417,487.437)">
                    <path d="M822.585,224.573L822.585,219.832C822.585,218.176 822.735,216.596 823.036,215.091C823.638,204.555 825.52,194.395 828.681,184.612C831.841,174.828 836.432,166.174 842.452,158.648C848.473,151.123 855.923,145.102 864.804,140.587C873.684,136.071 883.994,133.814 895.734,133.814C908.377,133.814 920.117,136.974 930.954,143.296C941.791,149.618 950.37,159.25 956.692,172.194L958.498,175.807C953.079,174.302 948.112,173.549 943.597,173.549C928.245,173.549 916.73,178.215 909.054,187.547C901.378,196.878 897.54,209.221 897.54,224.573C897.54,239.925 901.529,252.267 909.506,261.599C917.483,270.931 928.847,275.597 943.597,275.597C956.541,275.597 967.378,271.156 976.108,262.276C984.837,253.396 989.202,240.828 989.202,224.573C989.202,222.767 989.127,219.004 988.977,213.284C988.826,207.565 987.923,200.942 986.267,193.417C984.612,185.891 981.752,177.989 977.688,169.711C973.624,161.433 967.754,153.832 960.078,146.908C952.402,139.985 942.468,134.19 930.277,129.524C918.085,124.858 902.959,122.375 884.897,122.074C893.627,118.461 903.41,115.903 914.247,114.398C925.084,112.892 934.867,112.14 943.597,112.14C962.863,112.14 979.946,114.924 994.847,120.493C1009.75,126.062 1022.32,133.889 1032.55,143.973C1042.79,154.058 1050.61,165.948 1056.03,179.645C1061.45,193.341 1064.16,208.317 1064.16,224.573C1064.16,241.43 1061.45,256.707 1056.03,270.404C1050.61,284.101 1042.71,295.916 1032.32,305.85C1021.94,315.783 1009.3,323.46 994.395,328.878C979.494,334.297 962.562,337.006 943.597,337.006C924.03,337.006 906.721,334.146 891.67,328.427C876.619,322.707 863.976,314.805 853.741,304.721C843.506,294.636 835.755,282.746 830.487,269.049C825.219,255.353 822.585,240.527 822.585,224.573Z" style="fill:none;"/>
                </g>
                <g transform="matrix(0.171743,0,0,0.171743,238.417,487.437)">
                    <path d="M702.024,63.825C702.024,51.182 704.733,40.571 710.152,31.992C715.57,23.413 725.354,19.123 739.502,19.123C753.349,19.123 763.057,23.488 768.626,32.218C774.195,40.947 776.979,51.483 776.979,63.825L776.979,257.084C766.444,255.578 756.66,252.869 747.629,248.956C738.599,245.043 730.697,239.85 723.924,233.378C717.151,226.906 711.807,219.305 707.894,210.575C703.981,201.845 702.024,191.912 702.024,180.774L702.024,63.825Z" style="fill:rgb(10,50,40);"/>
                </g>
                <g transform="matrix(0.171743,0,0,0.171743,238.417,487.437)">
                    <path d="M702.024,253.02L702.024,212.381C705.034,226.529 710.679,237.592 718.957,245.569C727.235,253.547 735.889,259.492 744.92,263.405C753.951,267.318 762.304,269.651 769.981,270.404C777.657,271.156 782.548,271.533 784.656,271.533C791.579,271.533 796.621,274.223 799.782,279.604C802.943,284.98 804.523,291.104 804.523,297.976C804.523,309.631 799.933,318.373 790.751,324.2C781.57,330.028 771.109,332.942 759.369,332.942C747.931,332.942 738.523,330.926 731.148,326.896C723.773,322.86 717.903,317.256 713.538,310.083C709.173,302.91 706.163,294.467 704.508,284.754C702.852,275.037 702.024,264.459 702.024,253.02Z" style="fill:rgb(10,50,40);"/>
                </g>
                <g transform="matrix(0.171743,0,0,0.171743,238.417,487.437)">
                    <path d="M702.024,63.825C702.024,51.182 704.733,40.571 710.152,31.992C715.57,23.413 725.354,19.123 739.502,19.123C753.349,19.123 763.057,23.488 768.626,32.218C774.195,40.947 776.979,51.483 776.979,63.825L776.979,257.084C766.444,255.578 756.66,252.869 747.629,248.956C738.599,245.043 730.697,239.85 723.924,233.378C717.151,226.906 711.807,219.305 707.894,210.575C703.981,201.845 702.024,191.912 702.024,180.774L702.024,63.825Z" style="fill:none;"/>
                </g>
                <g transform="matrix(0.171743,0,0,0.171743,238.417,487.437)">
                    <path d="M702.024,253.02L702.024,212.381C705.034,226.529 710.679,237.592 718.957,245.569C727.235,253.547 735.889,259.492 744.92,263.405C753.951,267.318 762.304,269.651 769.981,270.404C777.657,271.156 782.548,271.533 784.656,271.533C791.579,271.533 796.621,274.223 799.782,279.604C802.943,284.98 804.523,291.104 804.523,297.976C804.523,309.631 799.933,318.373 790.751,324.2C781.57,330.028 771.109,332.942 759.369,332.942C747.931,332.942 738.523,330.926 731.148,326.896C723.773,322.86 717.903,317.256 713.538,310.083C709.173,302.91 706.163,294.467 704.508,284.754C702.852,275.037 702.024,264.459 702.024,253.02Z" style="fill:none;"/>
                </g>
                <g transform="matrix(0.171743,0,0,0.171743,238.417,487.437)">
                    <path d="M489.801,146.005C498.23,136.071 509.293,127.944 522.989,121.622C536.686,115.301 553.017,112.14 571.981,112.14C586.731,112.14 600.428,114.473 613.071,119.139C625.714,123.805 636.626,130.352 645.808,138.781C654.989,147.209 662.138,157.294 667.256,169.034C672.373,180.774 674.932,193.718 674.932,207.866C674.932,238.872 661.687,254.374 635.197,254.374L537.213,254.374C537.213,258.89 538.793,262.653 541.954,265.663C545.115,268.673 548.953,271.006 553.468,272.662C557.984,274.317 562.649,275.521 567.466,276.274C572.282,277.026 576.346,277.403 579.657,277.403C586.581,277.403 593.505,276.876 600.428,275.822C607.352,274.769 613.673,273.64 619.393,272.436C623.306,271.533 626.693,270.931 629.552,270.63C632.412,270.329 634.895,270.178 637.003,270.178C645.431,270.178 651.678,272.737 655.741,277.854C659.805,282.972 661.837,289.444 661.837,297.27C661.837,305.699 658.451,312.547 651.678,317.815C644.905,323.083 636.927,327.147 627.746,330.007C618.565,332.867 609.083,334.823 599.299,335.877C589.516,336.931 581.614,337.457 575.594,337.457C558.736,337.457 542.405,334.673 526.602,329.104C510.798,323.535 497.929,314.579 487.995,302.237C480.168,292.304 475.879,281.015 475.126,268.372C474.374,255.729 477.459,244.139 484.383,233.604C490.403,224.272 498.606,216.821 508.992,211.252C519.377,205.683 531.493,202.899 545.34,202.899L606.298,202.899C606.298,194.771 603.514,187.697 597.945,181.677C592.376,175.656 583.721,172.345 571.981,171.743C561.144,171.141 549.781,172.571 537.89,176.032C526,179.494 515.012,184.913 504.928,192.288C494.843,199.663 486.264,208.995 479.19,220.283C472.116,231.572 467.977,244.742 466.773,259.793C461.655,240.527 460.828,220.81 464.289,200.641C467.751,180.473 476.255,162.261 489.801,146.005Z" style="fill:rgb(10,50,40);"/>
                </g>
                <g transform="matrix(0.171743,0,0,0.171743,238.417,487.437)">
                    <path d="M489.801,146.005C498.23,136.071 509.293,127.944 522.989,121.622C536.686,115.301 553.017,112.14 571.981,112.14C586.731,112.14 600.428,114.473 613.071,119.139C625.714,123.805 636.626,130.352 645.808,138.781C654.989,147.209 662.138,157.294 667.256,169.034C672.373,180.774 674.932,193.718 674.932,207.866C674.932,238.872 661.687,254.374 635.197,254.374L537.213,254.374C537.213,258.89 538.793,262.653 541.954,265.663C545.115,268.673 548.953,271.006 553.468,272.662C557.984,274.317 562.649,275.521 567.466,276.274C572.282,277.026 576.346,277.403 579.657,277.403C586.581,277.403 593.505,276.876 600.428,275.822C607.352,274.769 613.673,273.64 619.393,272.436C623.306,271.533 626.693,270.931 629.552,270.63C632.412,270.329 634.895,270.178 637.003,270.178C645.431,270.178 651.678,272.737 655.741,277.854C659.805,282.972 661.837,289.444 661.837,297.27C661.837,305.699 658.451,312.547 651.678,317.815C644.905,323.083 636.927,327.147 627.746,330.007C618.565,332.867 609.083,334.823 599.299,335.877C589.516,336.931 581.614,337.457 575.594,337.457C558.736,337.457 542.405,334.673 526.602,329.104C510.798,323.535 497.929,314.579 487.995,302.237C480.168,292.304 475.879,281.015 475.126,268.372C474.374,255.729 477.459,244.139 484.383,233.604C490.403,224.272 498.606,216.821 508.992,211.252C519.377,205.683 531.493,202.899 545.34,202.899L606.298,202.899C606.298,194.771 603.514,187.697 597.945,181.677C592.376,175.656 583.721,172.345 571.981,171.743C561.144,171.141 549.781,172.571 537.89,176.032C526,179.494 515.012,184.913 504.928,192.288C494.843,199.663 486.264,208.995 479.19,220.283C472.116,231.572 467.977,244.742 466.773,259.793C461.655,240.527 460.828,220.81 464.289,200.641C467.751,180.473 476.255,162.261 489.801,146.005Z" style="fill:none;"/>
                </g>
                <g transform="matrix(0.171743,0,0,0.171743,238.417,487.437)">
                    <path d="M102.382,285.079L102.382,90.014C102.382,69.244 107.123,52.161 116.605,38.765C126.087,25.369 140.612,18.671 160.179,18.671C169.51,18.671 177.789,20.402 185.013,23.864C192.238,27.326 198.559,32.142 203.978,38.313C209.396,44.484 214.137,51.784 218.201,60.213C222.265,68.642 225.802,77.672 228.812,87.305L245.068,136.974C247.175,143.296 249.357,149.693 251.615,156.165C253.873,162.637 255.905,168.733 257.711,174.452C259.517,180.172 261.097,185.138 262.452,189.353C263.807,193.567 264.785,196.728 265.387,198.835C272.31,220.81 276.751,240.753 278.707,258.664C280.664,276.575 279.535,292.755 275.321,307.204C273.515,312.924 270.58,317.213 266.516,320.073C262.452,322.933 258.012,324.363 253.195,324.363C248.68,324.363 244.842,323.309 241.681,321.202C238.52,319.095 235.886,316.386 233.779,313.074C231.672,309.763 229.941,306.226 228.587,302.463C227.232,298.7 225.953,295.013 224.748,291.4L180.949,158.648L180.949,285.079C180.949,300.431 177.789,312.322 171.467,320.75C165.145,329.179 155.212,333.393 141.665,333.393C128.119,333.393 118.185,329.179 111.864,320.75C105.542,312.322 102.382,300.431 102.382,285.079Z" style="fill:rgb(10,50,40);"/>
                </g>
                <g transform="matrix(0.171743,0,0,0.171743,238.417,487.437)">
                    <path d="M275.772,171.291L291.576,122.525L303.316,87.305C306.025,78.877 309.186,70.523 312.798,62.245C316.411,53.967 320.926,46.592 326.345,40.12C331.763,33.647 338.16,28.455 345.535,24.541C352.91,20.628 361.715,18.671 371.95,18.671C382.486,18.671 391.441,20.628 398.816,24.541C406.191,28.455 412.137,33.723 416.652,40.345C421.168,46.968 424.479,54.569 426.586,63.148C428.693,71.727 429.747,80.683 429.747,90.014L429.747,285.079C429.747,291.701 429.069,297.948 427.715,303.818C426.36,309.688 424.102,314.805 420.942,319.17C417.781,323.535 413.717,326.997 408.75,329.555C403.783,332.114 397.688,333.393 390.463,333.393C382.937,333.393 376.691,332.114 371.724,329.555C366.757,326.997 362.769,323.535 359.758,319.17C356.748,314.805 354.566,309.688 353.211,303.818C351.856,297.948 351.179,291.701 351.179,285.079L351.179,158.648L314.605,269.275C310.691,280.714 305.95,290.798 300.381,299.528C294.812,308.258 288.716,314.88 282.094,319.396C286.007,307.355 288.566,294.862 289.77,281.918C290.974,268.974 291.125,256.18 290.221,243.537C289.318,230.894 287.588,218.402 285.029,206.06C282.47,193.718 279.385,182.128 275.772,171.291Z" style="fill:rgb(10,50,40);"/>
                </g>
                <g transform="matrix(0.171743,0,0,0.171743,238.417,487.437)">
                    <path d="M102.382,285.079L102.382,90.014C102.382,69.244 107.123,52.161 116.605,38.765C126.087,25.369 140.612,18.671 160.179,18.671C169.51,18.671 177.789,20.402 185.013,23.864C192.238,27.326 198.559,32.142 203.978,38.313C209.396,44.484 214.137,51.784 218.201,60.213C222.265,68.642 225.802,77.672 228.812,87.305L245.068,136.974C247.175,143.296 249.357,149.693 251.615,156.165C253.873,162.637 255.905,168.733 257.711,174.452C259.517,180.172 261.097,185.138 262.452,189.353C263.807,193.567 264.785,196.728 265.387,198.835C272.31,220.81 276.751,240.753 278.707,258.664C280.664,276.575 279.535,292.755 275.321,307.204C273.515,312.924 270.58,317.213 266.516,320.073C262.452,322.933 258.012,324.363 253.195,324.363C248.68,324.363 244.842,323.309 241.681,321.202C238.52,319.095 235.886,316.386 233.779,313.074C231.672,309.763 229.941,306.226 228.587,302.463C227.232,298.7 225.953,295.013 224.748,291.4L180.949,158.648L180.949,285.079C180.949,300.431 177.789,312.322 171.467,320.75C165.145,329.179 155.212,333.393 141.665,333.393C128.119,333.393 118.185,329.179 111.864,320.75C105.542,312.322 102.382,300.431 102.382,285.079Z" style="fill:none;"/>
                </g>
                <g transform="matrix(0.171743,0,0,0.171743,238.417,487.437)">
                    <path d="M275.772,171.291L291.576,122.525L303.316,87.305C306.025,78.877 309.186,70.523 312.798,62.245C316.411,53.967 320.926,46.592 326.345,40.12C331.763,33.647 338.16,28.455 345.535,24.541C352.91,20.628 361.715,18.671 371.95,18.671C382.486,18.671 391.441,20.628 398.816,24.541C406.191,28.455 412.137,33.723 416.652,40.345C421.168,46.968 424.479,54.569 426.586,63.148C428.693,71.727 429.747,80.683 429.747,90.014L429.747,285.079C429.747,291.701 429.069,297.948 427.715,303.818C426.36,309.688 424.102,314.805 420.942,319.17C417.781,323.535 413.717,326.997 408.75,329.555C403.783,332.114 397.688,333.393 390.463,333.393C382.937,333.393 376.691,332.114 371.724,329.555C366.757,326.997 362.769,323.535 359.758,319.17C356.748,314.805 354.566,309.688 353.211,303.818C351.856,297.948 351.179,291.701 351.179,285.079L351.179,158.648L314.605,269.275C310.691,280.714 305.95,290.798 300.381,299.528C294.812,308.258 288.716,314.88 282.094,319.396C286.007,307.355 288.566,294.862 289.77,281.918C290.974,268.974 291.125,256.18 290.221,243.537C289.318,230.894 287.588,218.402 285.029,206.06C282.47,193.718 279.385,182.128 275.772,171.291Z" style="fill:none;"/>
                </g>
            </g>
        </g>
    </g>
</svg>
